<svg xmlns="http://www.w3.org/2000/svg" xmlns:xlink="http://www.w3.org/1999/xlink" width="500" zoomAndPan="magnify" viewBox="0 0 375 374.999991" height="500" preserveAspectRatio="xMidYMid meet" version="1.0"><defs><g/><clipPath id="d0bed6d194"><path d="M 37.5 19.691406 L 365 19.691406 L 365 306.941406 L 37.5 306.941406 Z M 37.5 19.691406 " clip-rule="nonzero"/></clipPath></defs><rect x="-37.5" width="450" fill="#ffffff" y="-37.499999" height="449.999989" fill-opacity="1"/><rect x="-37.5" width="450" fill="#ffffff" y="-37.499999" height="449.999989" fill-opacity="1"/><g clip-path="url(#d0bed6d194)"><path fill="#ffffff" d="M 118.601562 276.882812 L 156.824219 276.882812 L 156.824219 260.03125 L 41.863281 260.03125 C 39.460938 260.03125 37.519531 258.058594 37.519531 255.679688 L 37.519531 45.316406 C 37.519531 44.128906 38.007812 43.046875 38.796875 42.25 L 38.792969 42.242188 C 39.578125 41.457031 40.664062 40.972656 41.863281 40.972656 L 72.976562 40.972656 L 72.976562 29.050781 C 72.976562 23.980469 77.113281 19.84375 82.183594 19.84375 L 288.113281 19.84375 C 293.183594 19.84375 297.320312 23.980469 297.320312 29.050781 L 297.320312 40.972656 L 328.433594 40.972656 C 330.816406 40.972656 332.78125 42.9375 332.78125 45.316406 L 332.78125 71.460938 C 337.308594 69.085938 342.949219 69.75 346.796875 73.355469 L 360.832031 86.488281 C 365.738281 91.089844 366 98.820312 361.398438 103.730469 L 332.78125 134.296875 L 332.78125 255.679688 C 332.78125 258.0625 330.8125 260.03125 328.433594 260.03125 L 213.476562 260.03125 L 213.476562 276.882812 L 251.695312 276.882812 C 264.773438 276.882812 271.5625 292.8125 262.179688 302.199219 C 259.492188 304.886719 255.78125 306.554688 251.695312 306.554688 L 118.601562 306.554688 C 105.527344 306.554688 98.738281 290.617188 108.121094 281.238281 C 110.808594 278.546875 114.519531 276.882812 118.601562 276.882812 Z M 118.601562 276.882812 " fill-opacity="1" fill-rule="evenodd"/></g><path fill="#000000" d="M 325.265625 89.40625 L 346.222656 109.03125 L 355.957031 98.636719 C 357.722656 96.75 357.625 93.707031 355.738281 91.9375 L 341.703125 78.792969 C 339.816406 77.027344 336.769531 77.125 335 79.011719 Z M 325.265625 89.40625 " fill-opacity="1" fill-rule="evenodd"/><path fill="#0e60b6" d="M 270.019531 174.859375 L 333.378906 107.210938 L 341.136719 114.476562 L 277.777344 182.121094 Z M 270.019531 174.859375 " fill-opacity="1" fill-rule="nonzero"/><path fill="#000000" d="M 341.128906 114.472656 L 333.371094 107.207031 L 293.417969 149.882812 C 297.949219 150.371094 302.546875 150.652344 307.191406 150.71875 Z M 341.128906 114.472656 " fill-opacity="1" fill-rule="evenodd"/><path fill="#0e60b6" d="M 327.929688 102.113281 L 320.171875 94.855469 L 256.828125 162.511719 L 264.304688 169.511719 L 264.828125 169.511719 Z M 327.929688 102.113281 " fill-opacity="1" fill-rule="evenodd"/><path fill="#000000" d="M 327.929688 102.113281 L 320.171875 94.855469 L 272.289062 145.996094 C 276.261719 147.035156 280.296875 147.910156 284.390625 148.617188 Z M 327.929688 102.113281 " fill-opacity="1" fill-rule="evenodd"/><path fill="#0e60b6" d="M 104.742188 201.898438 C 102.671875 201.898438 100.996094 200.21875 100.996094 198.15625 C 100.996094 196.089844 102.671875 194.40625 104.742188 194.40625 L 161.6875 194.40625 C 163.753906 194.40625 165.433594 196.082031 165.433594 198.15625 C 165.433594 200.226562 163.753906 201.898438 161.6875 201.898438 Z M 104.742188 177.003906 C 102.671875 177.003906 100.996094 175.324219 100.996094 173.253906 C 100.996094 171.179688 102.671875 169.511719 104.742188 169.511719 L 202.480469 169.511719 C 204.550781 169.511719 206.226562 171.1875 206.226562 173.253906 C 206.226562 175.320312 204.550781 177.003906 202.480469 177.003906 Z M 104.742188 152.109375 C 102.671875 152.109375 100.996094 150.425781 100.996094 148.359375 C 100.996094 146.292969 102.671875 144.609375 104.742188 144.609375 L 131.332031 144.609375 C 133.402344 144.609375 135.078125 146.285156 135.078125 148.359375 C 135.078125 150.429688 133.402344 152.109375 131.332031 152.109375 Z M 124.296875 117.667969 C 125.960938 118.890625 126.320312 121.226562 125.101562 122.898438 C 123.882812 124.5625 121.542969 124.921875 119.878906 123.703125 L 99.910156 109.03125 C 97.816406 107.5 97.933594 104.425781 99.976562 102.957031 L 119.878906 88.335938 C 121.542969 87.117188 123.878906 87.476562 125.101562 89.140625 C 126.320312 90.804688 125.960938 93.144531 124.296875 94.363281 L 108.433594 106.019531 Z M 134.496094 131.863281 C 133.6875 133.757812 131.492188 134.644531 129.59375 133.832031 C 127.695312 133.027344 126.8125 130.832031 127.617188 128.929688 L 148.472656 80.175781 C 149.28125 78.28125 151.476562 77.394531 153.375 78.199219 C 155.273438 79.011719 156.160156 81.207031 155.351562 83.109375 L 134.496094 131.859375 Z M 163.09375 123.703125 C 161.429688 124.921875 159.089844 124.5625 157.867188 122.898438 C 156.648438 121.226562 157.007812 118.890625 158.671875 117.667969 L 174.535156 106.019531 L 158.671875 94.363281 C 157.007812 93.144531 156.648438 90.804688 157.867188 89.140625 C 159.089844 87.476562 161.429688 87.117188 163.09375 88.335938 L 182.996094 102.957031 C 185.039062 104.425781 185.152344 107.5 183.058594 109.03125 Z M 205.542969 127.207031 C 203.472656 127.207031 201.796875 125.527344 201.796875 123.464844 C 201.796875 121.398438 203.472656 119.714844 205.542969 119.714844 L 265.554688 119.714844 C 267.625 119.714844 269.304688 121.390625 269.304688 123.464844 C 269.304688 125.535156 267.625 127.207031 265.554688 127.207031 Z M 205.542969 102.3125 C 203.472656 102.3125 201.796875 100.632812 201.796875 98.5625 C 201.796875 96.488281 203.472656 94.820312 205.542969 94.820312 L 265.554688 94.820312 C 267.625 94.820312 269.304688 96.496094 269.304688 98.5625 C 269.304688 100.628906 267.625 102.3125 265.554688 102.3125 Z M 247.914062 161.816406 C 248.101562 161.03125 248.523438 160.363281 249.085938 159.863281 L 256.355469 152.109375 L 150.339844 152.109375 C 148.269531 152.109375 146.59375 150.425781 146.59375 148.359375 C 146.59375 146.292969 148.269531 144.609375 150.339844 144.609375 L 263.371094 144.609375 L 289.828125 116.355469 L 289.828125 67.394531 L 80.46875 67.394531 L 80.46875 221.09375 L 289.828125 221.09375 L 289.828125 180.171875 L 280.84375 189.761719 C 280.394531 190.316406 279.785156 190.746094 279.054688 190.96875 L 244.503906 201.628906 C 244.074219 201.808594 243.605469 201.898438 243.117188 201.898438 L 180.691406 201.898438 C 178.625 201.898438 176.945312 200.21875 176.945312 198.152344 C 176.945312 196.089844 178.625 194.40625 180.691406 194.40625 L 240.160156 194.40625 L 244.300781 177 L 221.488281 177 C 219.417969 177 217.738281 175.324219 217.738281 173.253906 C 217.738281 171.179688 219.417969 169.511719 221.488281 169.511719 L 246.082031 169.511719 L 247.914062 161.8125 Z M 247.914062 161.816406 " fill-opacity="1" fill-rule="evenodd"/><path fill="#000000" d="M 264.277344 143.640625 C 252.027344 139.660156 240.492188 134.105469 229.90625 127.207031 L 265.554688 127.207031 C 267.625 127.207031 269.300781 125.527344 269.300781 123.464844 C 269.300781 121.398438 267.625 119.714844 265.554688 119.714844 L 219.4375 119.714844 C 201.757812 105.824219 187.375 87.929688 177.652344 67.394531 L 289.828125 67.394531 L 289.828125 116.355469 Z M 205.542969 102.3125 L 265.554688 102.3125 C 267.625 102.3125 269.304688 100.632812 269.304688 98.5625 C 269.304688 96.488281 267.625 94.820312 265.554688 94.820312 L 205.542969 94.820312 C 203.472656 94.820312 201.796875 96.496094 201.796875 98.5625 C 201.796875 100.628906 203.472656 102.3125 205.542969 102.3125 Z M 205.542969 102.3125 " fill-opacity="1" fill-rule="evenodd"/><path fill="#0e60b6" d="M 253.710938 169.804688 L 248.277344 192.652344 L 270.714844 185.722656 Z M 253.710938 169.804688 " fill-opacity="1" fill-rule="evenodd"/><path fill="#000000" d="M 325.289062 78.480469 L 325.289062 48.464844 L 297.320312 48.464844 L 297.320312 108.351562 Z M 325.289062 78.480469 " fill-opacity="1" fill-rule="evenodd"/><path fill="#0e60b6" d="M 297.320312 172.167969 L 297.320312 221.09375 L 325.289062 221.09375 L 325.289062 142.296875 Z M 297.320312 172.167969 " fill-opacity="1" fill-rule="evenodd"/><path fill="#000000" d="M 325.289062 149.867188 L 325.289062 142.296875 L 317.605469 150.503906 C 320.183594 150.359375 322.746094 150.144531 325.289062 149.867188 Z M 325.289062 149.867188 " fill-opacity="1" fill-rule="evenodd"/><path fill="#0e60b6" d="M 289.828125 59.90625 L 289.828125 29.050781 C 289.828125 28.117188 289.050781 27.335938 288.113281 27.335938 L 82.183594 27.335938 C 81.25 27.335938 80.46875 28.117188 80.46875 29.050781 L 80.46875 59.90625 Z M 152.867188 48.273438 C 150.796875 48.273438 149.121094 46.597656 149.121094 44.527344 C 149.121094 42.453125 150.796875 40.785156 152.867188 40.785156 L 268.878906 40.785156 C 270.949219 40.785156 272.628906 42.460938 272.628906 44.527344 C 272.628906 46.589844 270.949219 48.273438 268.878906 48.273438 Z M 133.957031 40.785156 C 136.027344 40.785156 137.703125 42.460938 137.703125 44.527344 C 137.703125 46.589844 136.03125 48.273438 133.945312 48.273438 C 131.875 48.273438 130.199219 46.597656 130.199219 44.527344 C 130.199219 42.453125 131.871094 40.785156 133.957031 40.785156 Z M 117.691406 40.785156 C 119.761719 40.785156 121.441406 42.460938 121.441406 44.527344 C 121.441406 46.589844 119.765625 48.273438 117.679688 48.273438 C 115.613281 48.273438 113.933594 46.597656 113.933594 44.527344 C 113.933594 42.453125 115.609375 40.785156 117.691406 40.785156 Z M 101.429688 40.785156 C 103.496094 40.785156 105.175781 42.460938 105.175781 44.527344 C 105.175781 46.589844 103.503906 48.273438 101.417969 48.273438 C 99.347656 48.273438 97.671875 46.597656 97.671875 44.527344 C 97.671875 42.453125 99.34375 40.785156 101.429688 40.785156 Z M 101.429688 40.785156 " fill-opacity="1" fill-rule="evenodd"/><path fill="#000000" d="M 289.828125 59.90625 L 289.828125 29.050781 C 289.828125 28.117188 289.050781 27.335938 288.113281 27.335938 L 165.382812 27.335938 C 166.082031 31.890625 166.992188 36.375 168.105469 40.785156 L 268.878906 40.785156 C 270.949219 40.785156 272.628906 42.460938 272.628906 44.527344 C 272.628906 46.589844 270.949219 48.273438 268.878906 48.273438 L 170.199219 48.273438 C 171.421875 52.226562 172.816406 56.105469 174.363281 59.90625 Z M 289.828125 59.90625 " fill-opacity="1" fill-rule="evenodd"/><path fill="#0e60b6" d="M 45.011719 48.464844 L 72.976562 48.464844 L 72.976562 221.09375 L 45.011719 221.09375 Z M 45.011719 48.464844 " fill-opacity="1" fill-rule="nonzero"/><path fill="#0e60b6" d="M 164.316406 260.03125 L 205.984375 260.03125 L 205.984375 276.882812 L 164.316406 276.882812 Z M 164.316406 260.03125 " fill-opacity="1" fill-rule="nonzero"/><path fill="#0e60b6" d="M 63.148438 245.074219 C 61.078125 245.074219 59.398438 243.398438 59.398438 241.324219 C 59.398438 239.253906 61.078125 237.582031 63.148438 237.582031 L 64.101562 237.582031 C 66.171875 237.582031 67.847656 239.257812 67.847656 241.324219 C 67.847656 243.390625 66.171875 245.074219 64.101562 245.074219 Z M 325.289062 228.585938 L 45.011719 228.585938 L 45.011719 252.539062 L 325.289062 252.539062 Z M 325.289062 228.585938 " fill-opacity="1" fill-rule="evenodd"/><path fill="#0e60b6" d="M 251.695312 284.371094 L 118.601562 284.371094 C 112.171875 284.371094 108.746094 292.230469 113.417969 296.902344 C 114.75 298.230469 116.585938 299.0625 118.601562 299.0625 L 251.695312 299.0625 C 258.128906 299.0625 261.554688 291.203125 256.882812 286.535156 C 255.546875 285.199219 253.714844 284.371094 251.695312 284.371094 Z M 251.695312 284.371094 " fill-opacity="1" fill-rule="evenodd"/><g fill="#000000" fill-opacity="1"><g transform="translate(335.089499, 99.788139)"><g><path d="M 5.515625 0.265625 C 4.816406 0.253906 4.207031 0.101562 3.6875 -0.1875 C 3.164062 -0.476562 2.765625 -0.875 2.484375 -1.375 C 2.210938 -1.875 2.082031 -2.4375 2.09375 -3.0625 C 2.101562 -3.6875 2.253906 -4.242188 2.546875 -4.734375 C 2.835938 -5.222656 3.25 -5.601562 3.78125 -5.875 C 4.3125 -6.15625 4.925781 -6.289062 5.625 -6.28125 C 6.320312 -6.269531 6.929688 -6.117188 7.453125 -5.828125 C 7.972656 -5.535156 8.367188 -5.140625 8.640625 -4.640625 C 8.921875 -4.140625 9.050781 -3.578125 9.03125 -2.953125 C 9.019531 -2.003906 8.691406 -1.222656 8.046875 -0.609375 C 7.410156 -0.00390625 6.566406 0.285156 5.515625 0.265625 Z M 5.515625 0.265625 "/></g></g></g></svg>